<svg viewBox="0 0 12 12" width="60px" height="60px" xmlns="http://www.w3.org/2000/svg"><path fill-rule="evenodd" d="M 4,1 8,1 8,3 12,3 12,6 11,6 11,8 10,8 10,9 12,9 12,12 9,12 9,11 3,11 3,12 0,12 0,9 2,9 2,8 1,8 1,6 0,6 0,3 4,3z" fill="#E76A6E"/><path fill-rule="evenodd" d="M 5,2 7,2 7,5 8,5 8,6 10,6 10,7 7,7 7,6 5,6 5,7 2,7 2,6 4,6 4,5 5,5z" fill="#ffffff"/><path fill-rule="evenodd" d="M 1,4 3,4 3,5 1,5z" fill="#ffffff"/><path fill-rule="evenodd" d="M 9,4 11,4 11,5 9,5z" fill="#ffffff"/><path fill-rule="evenodd" d="M 3,8 9,8 9,9 8,9 8,10 7,10 7,9 5,9 5,10 4,10 4,9 3,9z" fill="#ffffff"/><path fill-rule="evenodd" d="M 1,10 2,10 2,11 1,11z" fill="#ffffff"/><path fill-rule="evenodd" d="M 10,10 11,10 11,11 10,11z" fill="#ffffff"/></svg>